<?xml version="1.0" encoding="utf-8"?>
<!-- Generator: Adobe Illustrator 16.0.4, SVG Export Plug-In . SVG Version: 6.00 Build 0)  -->
<!DOCTYPE svg PUBLIC "-//W3C//DTD SVG 1.1//EN" "http://www.w3.org/Graphics/SVG/1.1/DTD/svg11.dtd">
<svg version="1.1" id="Layer_1" xmlns="http://www.w3.org/2000/svg" xmlns:xlink="http://www.w3.org/1999/xlink" x="0px" y="0px"
	 width="960px" height="170px" viewBox="0 0 960 170" enable-background="new 0 0 960 170" xml:space="preserve">
<path fill="#B2B2B2" d="M311.841,99.603l27.685-69.451h32.124L323.12,144.246h-23.078L252.199,30.152h32.3L311.841,99.603z"/>
<path fill="#B2B2B2" d="M410.057,36.999c0,8.554-6.831,15.391-15.376,15.391s-15.376-6.837-15.376-15.391s6.831-15.4,15.376-15.4
	S410.057,28.445,410.057,36.999z M408.352,144.246h-27.341V66.761h27.341V144.246z"/>
<path fill="#B2B2B2" d="M476.696,86.772c-5.126-2.57-10.084-3.767-14.867-3.767c-4.791,0-8.378,2.393-8.378,5.474
	c0,3.599,1.372,4.276,12.308,6.67c15.553,3.08,22.56,10.438,22.56,23.092c0,17.45-14.532,28.908-36.915,28.908
	c-10.771,0-20.846-2.903-30.929-8.888l9.907-19.334c7.184,4.787,15.553,7.867,21.873,7.867c4.959,0,8.546-2.561,8.546-5.984
	c0-3.934-2.048-5.13-11.622-7.181c-16.748-3.423-22.727-9.239-22.727-21.895c0-16.94,13.504-27.711,34.525-27.711
	c9.397,0,16.404,1.363,24.94,4.954L476.696,86.772z"/>
<path fill="#B2B2B2" d="M528.616,110.717c0,9.408,4.616,14.204,14.014,14.204c9.232,0,13.838-4.796,13.838-14.204V66.761h27.342
	v49.263c0,20.521-14.348,31.47-41.18,31.47c-26.998,0-41.354-10.948-41.354-31.47V66.761h27.341V110.717z"/>
<path fill="#B2B2B2" d="M685.464,66.761v77.485h-27.342v-8.555c-5.986,7.701-13.504,11.125-23.93,11.125
	c-22.041,0-39.131-18.139-39.131-41.396c0-23.435,16.914-41.229,38.963-41.229c9.908,0,17.258,3.08,24.098,10.094v-7.523H685.464z
	 M623.599,105.42c0,9.751,8.035,17.785,17.776,17.785s17.601-7.867,17.601-17.618c0-9.918-7.859-17.785-17.601-17.785
	C631.458,87.802,623.599,95.669,623.599,105.42z"/>
<path fill="#B2B2B2" d="M730.545,144.246h-27.341V18.861h27.341V144.246z"/>
<path fill="#4094E4" d="M833.747,68.979C826.741,60.6,818.362,56.5,808.111,56.5c-17.776,0-30.585,13.164-30.585,31.469
	c0,17.618,12.984,30.615,30.585,30.615c9.741,0,17.943-3.757,25.636-11.968v35.06c-13.847,4.62-18.462,5.65-26.146,5.65
	c-34.349,0-61.013-26.005-61.013-59.524c0-33.361,26.831-60.044,60.326-60.044c8.889,0,16.062,1.54,26.832,5.817V68.979z"/>
<path fill="#4094E4" d="M900.192,99.603l27.684-69.451H960l-48.528,114.094h-23.078L840.55,30.152h32.301L900.192,99.603z"/>
<g>
	<path fill="#4094E4" d="M71.635,146.862c0-12.766,10.325-23.12,23.097-23.12s23.115,10.354,23.115,23.12
		c0,12.784-10.381,23.138-23.098,23.138C81.96,170,71.626,159.628,71.635,146.862z"/>
	<path fill="#4094E4" d="M130.692,61.881c12.781,0,23.124,10.354,23.105,23.129c0,12.774-10.324,23.128-23.105,23.128H58.659
		c-12.771,0-23.115-10.354-23.115-23.128c0-12.775,10.381-23.129,23.097-23.129H130.692z"/>
	<path fill="#4094E4" d="M23.106,46.258C10.325,46.258-0.019,35.904,0,23.138C0,10.354,10.325,0,23.106,0h143.602
		c12.764,0,23.106,10.354,23.106,23.138c0,12.766-10.371,23.12-23.106,23.12H23.106z"/>
</g>
</svg>
